<mxfile host="app.diagrams.net" modified="2023-11-30T14:58:17.652Z" agent="Mozilla/5.0 (Windows NT 10.0; Win64; x64) AppleWebKit/537.36 (KHTML, like Gecko) Chrome/119.0.0.0 Safari/537.36" etag="toBrxWI5_4xg5vlHUMH8" version="22.1.5" type="device">
  <diagram name="Page-1" id="mMWTi1OjcdXiKS46zE5s">
    <mxGraphModel dx="794" dy="456" grid="1" gridSize="10" guides="1" tooltips="1" connect="1" arrows="1" fold="1" page="1" pageScale="1" pageWidth="850" pageHeight="1100" math="0" shadow="0">
      <root>
        <mxCell id="0" />
        <mxCell id="1" parent="0" />
        <mxCell id="jQzrwu_BZJQIEF9w9ixU-1" style="edgeStyle=orthogonalEdgeStyle;rounded=0;orthogonalLoop=1;jettySize=auto;html=1;exitX=0.5;exitY=1;exitDx=0;exitDy=0;entryX=0.5;entryY=0;entryDx=0;entryDy=0;" edge="1" parent="1" source="4bSHURZl0qpeT8hhylyd-2" target="4bSHURZl0qpeT8hhylyd-3">
          <mxGeometry relative="1" as="geometry" />
        </mxCell>
        <mxCell id="4bSHURZl0qpeT8hhylyd-2" value="Mulai" style="ellipse;whiteSpace=wrap;html=1;" parent="1" vertex="1">
          <mxGeometry x="280" y="80" width="70" height="50" as="geometry" />
        </mxCell>
        <mxCell id="4bSHURZl0qpeT8hhylyd-3" value="Selesai" style="ellipse;whiteSpace=wrap;html=1;" parent="1" vertex="1">
          <mxGeometry x="280" y="360" width="70" height="50" as="geometry" />
        </mxCell>
      </root>
    </mxGraphModel>
  </diagram>
</mxfile>
